<?xml version="1.0" encoding="utf-8"?>
<!-- Generator: Adobe Illustrator 19.0.0, SVG Export Plug-In . SVG Version: 6.00 Build 0)  -->
<svg version="1.1" xmlns="http://www.w3.org/2000/svg" xmlns:xlink="http://www.w3.org/1999/xlink" x="0px" y="0px" width="261.8px"
	 height="261.8px" viewBox="289.1 166.1 261.8 261.8" style="enable-background:new 289.1 166.1 261.8 261.8;" xml:space="preserve"
	>
<style type="text/css">
	
		.st0{fill-rule:evenodd;clip-rule:evenodd;fill:#878787;stroke:#F9F9F9;stroke-width:0.25;stroke-linecap:round;stroke-linejoin:round;}
</style>
<g id="Background">
</g>
<g id="Ghana_1_">
	<polygon id="Volta" class="st0" points="473.2,265 473.5,265 473.7,265 475,264.7 475.3,264.7 476.8,264.9 476.8,264.9 
		476.9,264.9 477.1,266.4 478.3,269 479.9,271.2 481.5,272.3 482.2,273.1 483.2,274.1 484.2,274.8 486.9,276.1 487.6,277.6 
		488.1,279.1 489.6,280.4 489.7,280.8 489.7,281.3 489.8,281.9 489.8,282.3 489.8,282.5 490,282.6 490.4,282.7 490.6,282.8 
		490.8,283.8 490.5,284.5 489.8,284.9 488,285.7 487.4,286.1 486,287.3 485.7,287.5 485.4,287.5 485.2,287.7 485.1,288.2 
		485.3,288.6 485.6,288.9 485.9,289.3 485.9,289.8 485.7,290.4 485.4,290.6 485.2,290.9 485.4,291.9 485.6,293.8 485.9,295.3 
		486,296.1 485.9,297.6 486.3,300.3 486.3,300.5 486.3,303 486.7,305.3 486.6,307.4 486.7,308.2 485.5,308 485,308.8 484.9,310.1 
		484.9,311.2 484.7,311.8 484.1,312 483.5,312.2 483,312.5 482.5,312.9 482.3,313.3 482.2,313.8 482,316.2 482.2,318.2 482.8,319.9 
		484.1,321.1 484.9,321.2 485.7,321 487.1,320.5 487.4,320.8 488.1,323.5 488,324.4 487.5,325.9 487.1,327.8 486.1,330.2 486,331.8 
		486.2,333.6 486.1,335.4 485.4,336.8 484.8,337.1 483.1,337.5 482.5,337.6 482,337.7 482.4,338.4 483.6,339.3 484,340.1 
		483.9,340.8 483.1,342.2 482.8,343.1 483,343.5 483.3,343.7 483.8,344.1 485,346.3 485.3,346.6 486,346.8 486.7,347.2 487.3,347.7 
		487.6,348.4 487.6,349 487.3,351.1 487.5,351.9 488,352.4 488.6,352.8 489,353.5 489.3,353.5 490.5,353.5 490.8,353.6 491.3,354.1 
		491.3,354.4 491,354.8 490.8,355.3 490.8,355.6 490.7,356.4 491,357.4 491.4,358.4 492.1,359.4 492.9,360.2 494.9,361.2 
		495.9,361.9 497.3,363.4 497.8,363.8 498.6,364.1 501.7,364.1 502.7,367.3 503.4,368.2 503.7,368.5 504,368.6 504.3,368.8 
		504.6,369.1 505.1,369.9 505.6,370.4 506.1,370.7 509.4,371.1 509.9,371.7 509.8,373.2 509.8,373.2 509.8,373.2 509.5,373.3 
		507.7,374.3 506.3,375.3 504.3,377.5 503.8,378.3 502.8,380.2 502.6,381 502.6,381.9 502.1,383.8 501.8,384.5 500.5,385.7 
		498.9,386.3 491.2,387.2 489.2,387 489.2,387 490,386.4 490.8,386.2 491,386 491.1,385.8 491,385.5 490.9,385.3 490.7,385.2 
		490.6,385.1 490.3,384.8 489.7,384.5 488.8,384.2 488.3,383.8 487.8,383.5 487.4,382.9 485.9,379.1 485.5,378.6 485.2,378.4 
		484.6,378.1 481.5,377.4 478.2,377.2 478.2,377.2 477.9,377.3 477.5,377.3 477.1,377.5 476.4,377.9 475.6,378.4 475.4,378.7 
		475.2,378.9 474.9,379.5 475,375.8 475,375.5 474.8,375.2 473.4,374.3 472.5,373.6 472,373.3 471.3,373.2 468.6,373.3 467.8,373.1 
		465.9,371.6 465.7,371.2 465.6,370.5 465.8,369.8 466.1,369.3 466.3,368.8 466.2,368.1 465.9,367.3 465.7,366.8 465.9,366.6 
		467.7,365.9 468.4,365.5 469,365 469.1,364.9 469.3,364.8 469.5,364.4 469.6,364.2 470.7,360.7 470.8,360.4 470.8,360 470.6,359.4 
		470.4,359.1 470.2,358.9 469.7,358.6 469.4,358.3 469.2,358 469.2,357.8 469.1,357.6 468.9,356.7 468.8,356.2 468.7,356 
		468.6,355.9 468.4,355.8 468.2,355.7 468,355.7 466.8,355.8 466.6,355.7 466.5,355.6 466.5,355.1 466.6,354.3 467.3,351.9 
		467.5,351.5 467.6,351.3 467.7,351.1 467.8,351 468,350.8 468.1,350.7 468.6,350.1 468.8,350 470.4,349.1 470.5,348.9 470.6,348.8 
		470.7,348.5 470.7,348 470.5,346.3 470.3,345.9 470.1,345.5 469.9,345.2 469.5,345 469.2,344.8 468.5,344.6 468.4,344.5 
		468.2,344.4 468.1,344.2 467.9,343.9 467.8,343.4 467.8,343 467.9,342.5 468.3,341.4 468.5,341 468.7,340.6 469.4,340 469.6,339.8 
		470.1,339.3 470.5,338.8 470.6,338.6 470.7,338.2 470.7,337.5 470.6,336.4 470.4,335.4 470.4,335.2 470.4,334.9 470.4,334.4 
		470.7,333.6 471,332.9 471.1,332.8 471.2,332 471,329.9 470.8,328.6 470.8,328.3 470.9,327.9 471.6,325.7 471.7,324.5 471.7,323.9 
		471.6,322.7 471.4,322.5 471.2,322.2 470.7,321.8 470.4,321.6 470.1,321.4 469,321.1 467.5,320.4 467.3,320.2 467.1,319.9 
		467,319.4 466.9,319.1 466.8,316.7 466.7,316.5 466.2,315.3 463.6,310.7 462.6,308 462.6,307.5 462.4,307.1 462.2,306.8 
		461.7,306.5 461.4,306.4 460.5,306.2 460.1,306.1 459.7,306 459.3,305.7 459,305.3 458,303.8 457.9,303.5 457.8,303.1 457.6,301.7 
		457.5,301.2 455.7,297.2 455.3,296.4 454.8,295.8 449.2,291.3 448.4,290.9 446.1,290.3 446.9,289.4 447.7,287.7 448,287.4 
		448.2,287.3 448.7,287.4 449,287.4 449.4,287.3 450.8,286.9 451,286.9 451.3,286.9 452.2,287.4 452.4,287.5 452.7,287.5 
		453.1,287.5 453.8,287.4 454.1,287.2 454.4,286.9 454.6,286.6 454.8,286.5 455.1,286.4 455.2,286.2 455.3,286 455.7,285.2 
		455.8,285 455.8,284.8 455.7,284.6 455.8,284.3 456,284 456.6,283.4 457,283.1 457.3,282.9 459.1,282.3 460,282.3 460.9,282.5 
		461.8,282.8 462.4,283 463.9,284 464.4,284.5 464.8,285 465.7,285.8 466.2,286.2 466.6,286.2 467.3,286.2 468.9,286 469.6,285.9 
		470,285.6 470,285.4 470,285.2 470,285 469.9,284.8 469.6,283.2 469.7,282.9 469.8,282.7 470,282.5 470.2,282.5 471.5,282.4 
		471.7,282.3 471.9,282.2 471.9,281.9 472,281.7 471.9,281.2 471.8,281 471.4,280.3 471.3,280.2 471.1,280.1 470.9,280 470.7,279.9 
		470.4,279.9 469.2,280.1 468.3,280.3 467.4,280.4 467.2,280.4 466.7,280.4 466.3,280.3 466.1,280.2 465.9,280.1 465.8,279.9 
		465.8,279.7 465.9,279.3 465.9,279 465.8,278.6 465.7,278.2 465.6,277.9 465.7,277.6 465.9,277.4 466.1,277.3 466.4,277.2 
		466.8,277.1 467,276.9 467.1,276.7 467.1,276.5 467,276.3 466.9,276.2 466.1,275.8 465.9,275.7 465.8,275.5 465.8,275.3 
		465.8,275.1 465.8,274.8 465.8,274.6 466.3,273.4 466.6,272.7 467,272.1 467.2,271.9 467.5,271.8 467.7,271.9 468,272.1 
		468.3,272.1 468.5,272.1 468.9,272 469,271.8 469.1,271.6 469,271.3 468.9,271.2 468.8,271 468.3,270.6 468.1,270.3 468,270.1 
		468,269.9 467.9,269.7 468,269.4 468.2,269 469,268 469.3,267.3 469.6,266.6 469.7,266.3 469.7,266.1 469.7,265.9 469.6,265.7 
		469.4,265.5 469.4,265.3 469.5,265 469.6,264.9 469.8,264.8 470.8,264.4 471.2,264.3 471.4,264.2 471.6,264.3 471.8,264.4 
		472.8,264.9 473,265 	"/>
	<polygon id="Upper_West" class="st0" points="404.6,172.6 403.8,174.3 403.6,175.1 403.7,175.8 403.7,176.3 403.6,176.7 403.4,177 
		403.4,177.2 403.4,177.4 403.4,177.7 403.4,179.4 403.3,179.6 403.1,179.8 402.9,179.9 402.7,180 402.5,180.1 401.9,180.6 
		401.6,181 401.6,181.3 401.5,181.9 401.5,182.1 401.5,182.3 400.9,182.8 400.3,183.5 400.1,183.6 399.7,183.8 399.5,183.9 
		399.2,184.2 398.8,184.6 398.7,184.9 398.6,185.3 398.4,186.5 398.4,186.9 398.4,187.1 398.6,187.5 398.7,187.7 398.9,189.2 
		398.9,189.4 399,189.6 399.1,189.8 399.3,190.2 399.4,190.4 399.6,190.5 399.8,190.5 400,190.5 400.3,190.5 400.5,190.6 
		400.6,190.8 400.7,191 400.8,191.2 400.9,191.4 401,191.5 401.2,191.6 401.4,191.7 401.5,191.8 401.6,192 401.8,192.2 402,192.2 
		402.4,192.3 402.7,192.4 403.2,192.6 403.4,192.8 403.5,193.1 403.5,193.3 403.4,193.7 403.4,193.9 403.6,194.4 403.7,194.6 
		403.8,194.7 404.1,194.9 404.4,195.1 404.9,195.5 405,195.6 405,195.6 405.2,195.5 405.3,195.4 405.7,195 405.8,194.9 406,194.8 
		406.3,194.8 406.7,195 406.8,195.2 407,195.6 407.2,196.3 407.3,197.1 407.3,197.8 407.2,198 406.9,198.3 405.6,197.9 404.2,197.1 
		403.3,196.8 402.8,196.7 402.5,196.7 402.2,196.8 401.9,196.8 401.7,197 401.6,197.1 401,197.8 400.2,199.3 400,199.6 399.4,200.2 
		397.8,201.4 397.3,201.9 396.9,202.5 396.7,202.9 396.6,203.1 396.5,203.6 396.4,205.2 396.4,205.4 396.3,205.7 395.6,206.9 
		395.5,207.2 395.5,207.4 395.7,207.7 398.8,210.5 399.1,210.8 399.3,211.1 399.2,211.3 399,211.5 398.6,211.7 398.1,211.9 
		397.9,212 397.7,212 397.5,212 397.2,211.9 396.8,211.8 396.6,211.8 396.4,211.8 396.2,211.9 395.7,211.9 395.5,212 395.4,212.2 
		395.6,212.3 396.2,212.4 396.4,212.5 396.5,212.7 396.5,213 396.4,213.2 396.1,213.3 395.9,213.3 395.7,213.2 395.4,213.2 
		395.2,213.2 394.7,213.6 394.4,213.6 394.1,213.8 393.9,213.9 393.8,214.1 393.7,214.3 393.7,214.3 393.5,214.7 393.5,215 
		393.6,215.7 393.5,215.9 393.6,216.1 393.6,216.3 393.9,216.8 394,217 394.1,217.2 394,217.5 394,217.9 393.8,218.3 393.7,218.8 
		393.6,219 393.5,219.2 393.3,219.3 392.3,219.6 392,219.8 391.7,220.2 391.4,220.7 391.1,221 390.9,221.1 389.9,221.1 387.7,220.9 
		387.5,220.9 386.9,221 386.3,221 383.7,220.9 378.5,222 377,222.1 376,221.9 375.5,221.8 374.4,221.8 373.9,221.8 373.4,221.8 
		372.1,222.2 371.9,222.2 368.3,222 368.1,222 364.3,223.2 363.8,223.2 361.8,223.3 361.2,223.4 360.6,223.6 360.3,223.7 360,223.9 
		359.9,224 359.7,224.3 359.6,224.5 359.3,225.3 359.1,225.6 358.9,225.8 358.6,225.9 357.9,226 357.6,226.2 357.4,226.3 
		357.3,226.5 357.1,226.9 356.9,227.1 356.6,227.5 356.2,227.8 355.9,227.9 351.4,228.5 351.1,228.3 350.9,227.9 350.9,227.5 
		350.7,227.2 350.3,227 350.1,227 349.9,227 349.6,226.6 349.3,225.8 349.4,224.9 350.1,223.5 351.5,222 351.8,221.6 351.6,221.2 
		350.7,219.6 350.5,218.6 350.9,216.7 350.9,215.7 350.7,214.9 349.8,213.6 349.6,212.7 349.6,210.5 349.6,209.2 349.1,207.4 
		349.2,206.5 349.7,205.7 350.5,205.1 350.8,204.7 350.9,204.2 350.9,203.6 350.8,203.4 350.5,203.3 350.1,203 349.7,202.9 
		349.4,202.9 349.1,202.8 349,202.3 348.9,202.1 348.5,202 348.1,201.9 347.8,201.8 347.4,201.1 347.4,200.2 347.6,199.4 
		347.9,198.8 348.2,198.4 348.5,198.2 348.9,198 349.4,198 349.9,197.8 350.2,197.4 350.4,197.1 350.2,196.9 349.3,196.8 
		348.6,196.7 348.1,196.5 346.7,195.2 346.4,194.7 346.3,193.9 346.1,193.7 345.6,193.2 345.4,192.9 345.3,192.5 345.2,191.7 
		345.1,191.3 343.9,189.1 343.7,188.3 343.9,187.9 344.4,186.9 344.6,186.2 344.8,186.1 344.9,185.9 344.9,185.6 344.7,185.5 
		344.5,185.4 344.4,185.3 344.3,185.3 344.3,185.2 344.2,184.7 344.3,184.5 344.7,184.1 344.9,183.7 345.1,182.7 345.8,181.6 
		346.2,179.7 346.5,178.9 347,178.2 347.7,177.7 348.2,177.1 348.5,176.2 348.2,175.4 347.8,174.7 347.5,173.9 347.6,173.6 
		347.6,173.4 351.1,173.4 351.1,173.9 352,173.9 355.7,173.8 363.6,173.7 373.4,173.7 382.4,173.6 391.3,173.5 397.5,173.4 
		398,173.1 398.3,172.4 399,172.2 404.1,172.4 	"/>
	<polygon id="Upper_East" class="st0" points="455.3,167.7 455.6,168.4 456.3,169 457.1,169.5 457.8,169.7 458.6,169.6 460,169.3 
		460.7,169.2 462.1,169.8 462.7,170.7 462.8,172 462.7,173.5 462.6,174 462.3,174.2 461.9,174.5 461.6,174.8 461.4,175.2 
		460.6,179.3 460.6,179.7 460.8,180.5 460.7,181 460.4,181.3 459.5,181.9 459,182.6 458.7,183.3 458.5,185 458.3,185.6 458.3,185.6 
		457.5,185.8 455,187.1 453,187.3 448.9,188.2 448.4,188.3 448.1,188.5 447.7,188.6 445.9,189.4 444.9,189.7 444.6,189.7 
		443.9,189.6 443.7,189.6 443.5,189.5 443.2,189.2 443,189 442.7,189 442.5,189 442.4,189.1 442.3,189.3 442.2,189.5 442.1,189.7 
		441.8,190.9 441.7,191.1 441.6,191.3 441.3,191.6 441.1,191.7 440.9,191.7 440.7,191.7 440.5,191.5 440.2,191.4 439.8,191.4 
		439.5,191.5 439.3,191.7 438.8,192.1 438.5,192.2 438.3,192.2 437.7,192 436.4,192 436.1,192.1 435.9,192.2 435.7,192.6 
		435.5,192.8 435.1,193 434.9,193.1 434.7,193 434.5,192.8 434.3,192.8 433.9,193.1 433.8,193.1 433.6,193 433.5,192.8 433.6,192.6 
		433.6,192.4 434.1,192 434.2,191.8 434.3,191.6 434.3,191.4 434.4,191.2 434.4,190.9 434.3,190.7 434.3,190.5 434.1,190.3 
		434,190.2 433.8,190.1 433.7,189.9 433.6,189.8 433.5,189.6 433.6,189.4 433.7,189.2 433.8,189.1 433.9,188.9 433.9,188.7 
		433.9,188.5 433.7,188.3 433.5,188.2 433.2,188.1 430.7,188 430.3,188.1 430.1,188.2 430,188.4 429.9,189.2 429.8,189.4 
		429.6,189.6 429.4,189.7 428.9,189.9 428.7,190.1 428.5,190.2 428.4,190.4 428.4,190.9 428.3,191.1 428.3,191.2 428.1,191.4 
		428,191.6 427.8,192 427.7,192.2 427.6,192.4 426,193.8 426,193.8 425.8,194 425.7,194.1 425.3,194.5 424.8,194.7 424.6,194.7 
		424.4,194.6 424.4,194.5 424.5,194.3 425,193.8 425,193.8 425,193.8 425.2,193.6 425.3,193.4 425.2,193.3 425,193.2 424.4,193.2 
		424,193.2 423.8,193.1 423.6,192.9 423.4,192.8 423.2,192.8 422.7,192.7 422.1,192.6 421.7,192.5 421.4,192.5 420.9,192.7 
		416.7,194.2 416.3,194.5 416.2,194.6 416.1,194.7 415.9,194.9 415.8,195.3 415.6,196 415.4,196.2 415.1,196.5 413.7,197.2 
		413.4,197.5 413.2,197.8 413.1,198 413.1,198.2 413,198.4 413.1,198.7 413.3,200.1 413.4,200.6 413.4,200.8 413.4,201.1 
		413.3,201.3 413.1,201.5 412.9,201.8 412.3,202.1 412.1,202.1 411.9,202 411.8,201.7 411.7,201.6 411.5,201.5 411.2,201.4 
		410.6,201.5 410.4,201.4 410.2,201.3 409.4,200.9 409.3,200.8 409.1,200.7 408.9,200.7 408.6,200.6 408.4,200.6 408.3,200.4 
		408.2,200.3 408,199.9 407.9,199.7 407.7,199.6 407.5,199.5 407.4,199.4 407.2,199.2 407.1,199.1 407,198.7 406.9,198.3 407.2,198 
		407.3,197.8 407.3,197.1 407.2,196.3 407,195.6 406.8,195.2 406.7,195 406.3,194.8 406,194.8 405.8,194.9 405.7,195 405.3,195.4 
		405.2,195.5 405,195.6 405,195.6 404.9,195.5 404.4,195.1 404.1,194.9 403.8,194.7 403.7,194.6 403.6,194.4 403.4,193.9 
		403.4,193.7 403.5,193.3 403.5,193.1 403.4,192.8 403.2,192.6 402.7,192.4 402.4,192.3 402,192.2 401.8,192.2 401.6,192 
		401.5,191.8 401.4,191.7 401.2,191.6 401,191.5 400.9,191.4 400.8,191.2 400.7,191 400.6,190.8 400.5,190.6 400.3,190.5 400,190.5 
		399.8,190.5 399.6,190.5 399.4,190.4 399.3,190.2 399.1,189.8 399,189.6 398.9,189.4 398.9,189.2 398.7,187.7 398.6,187.5 
		398.4,187.1 398.4,186.9 398.4,186.5 398.6,185.3 398.7,184.9 398.8,184.6 399.2,184.2 399.5,183.9 399.7,183.8 400.1,183.6 
		400.3,183.5 400.9,182.8 401.5,182.3 401.5,182.1 401.5,181.9 401.6,181.3 401.6,181 401.9,180.6 402.5,180.1 402.7,180 
		402.9,179.9 403.1,179.8 403.3,179.6 403.4,179.4 403.4,177.7 403.4,177.4 403.4,177.2 403.4,177 403.6,176.7 403.7,176.3 
		403.7,175.8 403.6,175.1 403.8,174.3 404.6,172.6 405,172.7 406.3,173.2 407.4,173.4 412.5,173.5 417.3,173.5 417.7,172.9 
		418.8,172.7 424.4,173.2 424.7,173.2 425.1,173.5 425.3,174 425.5,174.1 426,174.1 425.7,174.7 426.4,174.6 427.3,173.6 
		428.2,173.4 428.4,173.2 428.6,173.1 428.9,173.1 429.1,173.4 429.1,173.5 433.7,173.5 433.9,173.5 434,174 434.2,174 434.5,173.9 
		434.8,174 435.1,174.3 434.9,174.6 434.6,174.9 434.5,175.2 436.4,177.1 437.1,176.6 437.5,175.7 437.8,174.7 438.2,174 
		438.8,173.8 439.6,173.7 441.2,173.8 441.3,173.7 441.5,173.6 441.6,173.6 441.7,173.5 441.7,173.4 442.1,173 443.1,172.5 
		443.6,172.1 443.8,171.6 443.9,170.7 444.1,170.1 444.9,169.1 445.6,169.1 446.4,169.7 447.1,170.6 449.2,169.1 449.7,168.6 
		450,168 449.9,167.6 449.7,167.3 449.8,166.6 	"/>
	<polygon id="Western" class="st0" points="339.9,339.2 340.1,339.2 340.3,339.1 341.8,338.5 342.3,338.4 342.7,338.5 343.3,338.8 
		344.6,339.5 345.2,340 345.6,340.5 346.6,342.3 346.8,343.1 347.4,344.5 347.5,344.8 347.5,345.5 347.5,345.7 347.6,345.9 
		347.7,346.1 347.8,346.6 347.8,346.8 347.7,347 347.4,347.8 347.4,348 347.3,348.2 347.4,348.6 347.5,349 347.7,349.6 347.8,350 
		347.9,350.4 347.9,350.7 348,350.9 348.1,351 348.3,351.1 349.4,351.4 349.8,351.6 351.4,352.8 351.6,352.9 352,353 352.5,353 
		354.1,352.9 354.4,352.9 354.8,353 355.3,353.3 355.6,353.5 355.7,353.7 355.9,354.5 356.1,354.9 356.3,355.2 356.5,355.4 
		356.7,355.5 356.9,355.6 357.7,355.9 358.1,356.1 358.4,356.2 358.5,356.4 360.3,360.2 360.5,360.4 360.8,360.5 361,360.6 
		362.1,360.6 362.3,360.7 362.5,360.7 363,361 363.5,361.4 363.9,361.5 364.2,361.6 364.1,362.5 364.2,362.6 364.4,362.8 
		364.7,362.8 365,362.8 365.3,362.8 365.5,362.7 365.9,362.6 366,362.4 366.5,361.9 366.7,361.7 366.8,361.3 367,360.9 367.1,360.5 
		367.5,357.6 367.6,357.3 367.8,356.8 368.1,356.7 368.3,356.5 368.5,356.6 368.7,356.6 369.1,356.8 370.4,357.6 370.6,357.6 
		370.9,357.6 371.8,357.3 372.1,357.3 372.4,357.3 372.6,357.4 372.7,357.6 372.8,357.7 372.8,357.9 372.8,358.1 372.8,358.3 
		372.1,360.6 372,361.1 372,361.4 372.1,361.6 372.2,361.7 372.5,361.9 375.5,362.6 375.7,362.7 375.8,362.8 376,363 376.3,363.5 
		376.4,363.7 376.6,364.3 376.7,364.5 376.8,364.8 377,365.1 377.3,365.2 377.6,365.2 378.5,365.2 378.3,365.8 378,366.2 
		377.4,366.8 376.9,367.1 375.8,367.6 375.1,368 374.8,368.2 374.6,368.4 374.5,368.7 374.5,369.1 374.4,369.7 374.5,370.2 
		374.5,370.4 374.7,370.8 375,371.3 375.1,371.4 376.3,372.2 377,372.5 377.3,372.6 377.5,372.7 378.3,373 378.7,373.2 379.1,373.6 
		379.2,373.9 379.6,375 379.8,375.1 379.9,375.3 380.1,375.3 381.4,375.9 382,376.2 382.1,376.3 382.3,376.4 383.1,377.2 
		384.9,379.9 385,380 385.1,380.1 385.9,380.7 386,380.8 386.2,380.9 387.2,381.1 387.4,381.2 387.7,381.4 388,381.8 388.5,382.5 
		388.7,382.9 388.8,383.3 388.8,383.6 388.6,384.3 388.6,384.9 388.6,385.3 388.7,385.6 388.9,385.8 389.4,386 389.7,386.2 
		389.8,386.5 389.7,386.7 389.6,386.8 389.3,387.1 389.2,387.3 389.1,387.4 389,387.7 389,387.9 389.1,388.7 389,389.1 388.8,390 
		388.5,390.7 388.5,391 388.5,391.5 388.6,392.3 388.8,392.6 389,392.8 389.2,392.9 389.4,392.8 390.8,392.3 391.2,392.2 
		391.7,392.1 391.9,392.1 392.2,392.2 392.4,392.3 392.5,392.4 393,392.7 393.2,392.8 393.4,392.9 393.6,393 394.6,393 395.1,393.1 
		395.5,393.2 395.9,393.4 396.7,393.8 397.2,394.2 397.7,394.8 398.1,395.4 398.1,395.6 398.2,395.8 398.1,395.9 397.9,396.3 
		397.8,396.4 397.6,396.5 397.4,396.6 397.2,396.6 397.1,396.8 397,397 396.9,397.4 396.8,397.9 396.8,398.1 396.8,398.4 
		396.9,398.8 397.2,399.5 397.8,400.3 398,400.5 398.3,400.7 398.7,400.9 399,401 399.2,401.2 399.6,401.5 399.7,401.7 399.9,402 
		400.2,402.9 400.3,403.2 400.4,403.5 400.9,404.1 402.3,405.3 403.9,406.3 404.2,406.6 404.6,407 404.7,407.3 404.7,407.6 
		404.6,407.7 403.3,408.6 402.8,409.3 402.7,409.4 402.5,409.5 402.4,409.6 402.2,409.7 402,409.7 401.8,409.7 401.2,409.7 
		401,409.8 400.6,409.9 400.4,409.9 400.2,410 400.1,410.2 399.9,410.3 399.7,410.6 398.9,412.1 398.7,412.5 398.6,412.9 
		398.4,413.9 398.4,414.3 398.7,417 398.7,417 398.7,417 398.1,416.7 397.4,416.7 396.7,416.9 396.2,417.2 396.2,417.6 396.5,418.2 
		396.4,418.5 396.1,418.8 395.9,418.9 393.2,420.3 392.7,420.7 391.5,422 391.4,422.3 391.5,422.5 391.5,422.7 391.1,422.8 
		390.8,422.8 388,423.6 384.9,425 384.3,425.6 383.3,427 382.7,427.5 382.1,427.8 379.3,428.1 378.8,428.4 377.7,428.4 377.5,428.3 
		377.2,428.1 377.1,427.7 377.1,427.2 377,426.8 376.5,426.7 376.2,426.6 375.5,426.5 375.1,426.4 375.1,426.2 374.8,425.8 
		373,424.5 372.2,424.1 371.8,423.9 371.6,423.5 371.6,423.2 371.4,422.9 371.2,422.7 367,421 360.2,419.6 353.5,417.3 348.3,416.9 
		342.4,415.9 336.8,414.2 336.2,414.1 336.4,413.4 336.7,413.3 337,413.2 337.5,413.1 340.4,413.1 341.2,413.4 341.5,413.6 
		342,414.3 342.2,414.5 342.7,414.4 343.6,414.1 344,413.9 343.9,412.8 345,412.3 346.5,412.1 347.3,411.7 347.3,411.7 348.9,411.8 
		349.9,411.7 350.4,411.2 350.8,410.5 350.6,410.2 350.1,409.8 349.9,409.6 349.9,409.3 350.1,408.4 350.1,408.1 349.9,407.6 
		349.4,406.8 349.2,406.2 349.5,403.7 350.9,404 351.4,403.9 351.8,403.4 351.9,402.6 351.7,401.9 350.6,399.3 349.9,396.4 
		349.8,394.3 349.7,393.7 349.4,393.1 348.8,392.7 346,392 345.3,392.2 344,393 343.2,393.1 342.3,392.6 342,391.5 342.4,389 
		339.8,389.2 340.2,384.6 340.1,383.1 339.6,381.7 338.1,378.8 337.5,377.4 336.3,370.6 335.4,368.3 334.2,367.3 334.1,367.1 
		333.6,366.5 330.4,352.2 330.5,351.5 330.8,351.1 331.5,350.7 331.7,350.4 332.5,348.2 332.4,347.9 331.9,346.9 331.4,346.2 
		331.2,345.8 331.3,344.3 332,342.8 336.6,334.8 337.1,334.5 337.1,334.6 337.6,336.7 337.8,337.6 338.3,338.3 338.4,338.5 
		338.6,338.7 338.9,338.9 339.1,339.1 339.4,339.2 	"/>
	<polygon id="Northern" class="st0" points="469.3,198.2 469.6,198.1 469.7,197.9 469.9,197.6 470,197.5 471,197.9 471.4,198 
		471.9,197.9 472.3,197.7 472.6,197.6 473,197.6 473.4,198.1 473.4,198.5 473.3,198.9 473.3,199.3 473.7,200 474.4,200.7 
		474.8,201.3 474.5,202.1 475,202.1 476.8,201.8 477.2,202 478,202.7 477,203.4 476.8,204.1 476.7,204.7 476.4,205.3 476.5,206.7 
		476.3,209.6 476.7,210.6 477.2,211 477.6,211.1 477.9,211.3 478.1,212.2 477.9,212.9 477.9,213 477.4,213.1 476.8,213 476.1,213.1 
		476.4,213.5 476.3,213.8 476.2,214 476.1,214.4 476.2,214.7 476.7,215.7 476.9,216.5 476.9,216.8 476.6,217.1 476.1,217.6 
		475.8,218.2 475.7,218.8 475.9,220.5 475.9,220.9 475,224.1 475.1,224.9 475.3,225.3 475.6,225.6 475.8,226 476,226.6 476.1,227.4 
		476,228.1 475.6,228.6 474.9,228.7 474.2,228.3 473.1,227.2 472.5,228.3 472.6,229.5 473.2,230.4 474.5,230.5 476.1,230.1 
		476.9,230.3 477.2,231.1 477,231.7 476.3,231.9 475.6,231.7 475,231.4 474.3,231.8 473.3,231.9 471.3,231.7 471.2,231.9 471,233.1 
		471,233.3 471.1,233.5 471.4,233.7 471.8,234 472.2,234.2 473.3,234 473.8,234 474.2,234.5 474,234.9 473.5,235.2 472.9,235.5 
		471.2,235.8 471.2,236.4 471.5,237.1 471.2,237.5 471.3,238.1 472.1,238.2 472.8,238 474.7,237.4 475,237.1 475.1,236.8 
		475.3,235.9 475.5,235.6 476.1,235.3 477,235.2 478.6,235.1 479.4,235.2 481.5,236 481.8,236.4 481.8,236.8 481.7,237.2 
		481.5,237.6 481.5,237.7 481.5,237.7 481.5,237.8 482.7,238.2 483.4,238.8 483.7,239.8 483.3,241.8 483.2,243 483.1,243.6 
		482.7,244 482.2,244.2 481.9,244.6 481.9,245.4 482.4,246.9 482.4,247.6 481.9,248.4 481,249.2 480.7,249.6 480.7,250.2 
		480.5,251.6 479.8,252.8 479.4,254.1 479.9,255.3 480,255.3 480,255.3 481.9,258.7 482.4,260.7 481.5,261.9 481.5,261.9 
		481.3,262.5 481.2,263.1 481.1,263.6 480.7,263.8 480.1,263.8 479.7,263.6 479.4,263.6 478.9,263.7 479.1,263.9 478.9,264.6 
		478.5,265 478,264.1 477.5,263.9 477,264 476.8,264.4 476.9,264.9 476.8,264.9 476.8,264.9 475.3,264.7 475,264.7 473.7,265 
		473.5,265 473.2,265 473,265 472.8,264.9 471.8,264.4 471.6,264.3 471.4,264.2 471.2,264.3 470.8,264.4 469.8,264.8 469.6,264.9 
		469.5,265 469.4,265.3 469.4,265.5 469.6,265.7 469.7,265.9 469.7,266.1 469.7,266.3 469.6,266.6 469.3,267.3 469,268 468.2,269 
		468,269.4 467.9,269.7 468,269.9 468,270.1 468.1,270.3 468.3,270.6 468.8,271 468.9,271.2 469,271.3 469.1,271.6 469,271.8 
		468.9,272 468.5,272.1 468.3,272.1 468,272.1 467.7,271.9 467.5,271.8 467.2,271.9 467,272.1 466.6,272.7 466.3,273.4 465.8,274.6 
		465.8,274.8 465.8,275.1 465.8,275.3 465.8,275.5 465.9,275.7 466.1,275.8 466.9,276.2 467,276.3 467.1,276.5 467.1,276.7 
		467,276.9 466.8,277.1 466.4,277.2 466.1,277.3 465.9,277.4 465.7,277.6 465.6,277.9 465.7,278.2 465.8,278.6 465.9,279 
		465.9,279.3 465.8,279.7 465.8,279.9 465.9,280.1 466.1,280.2 466.3,280.3 466.7,280.4 467.2,280.4 467.4,280.4 468.3,280.3 
		469.2,280.1 470.4,279.9 470.7,279.9 470.9,280 471.1,280.1 471.3,280.2 471.4,280.3 471.8,281 471.9,281.2 472,281.7 471.9,281.9 
		471.9,282.2 471.7,282.3 471.5,282.4 470.2,282.5 470,282.5 469.8,282.7 469.7,282.9 469.6,283.2 469.9,284.8 470,285 470,285.2 
		470,285.4 470,285.6 469.6,285.9 468.9,286 467.3,286.2 466.6,286.2 466.2,286.2 465.7,285.8 464.8,285 464.4,284.5 463.9,284 
		462.4,283 461.8,282.8 460.9,282.5 460,282.3 459.1,282.3 457.3,282.9 457,283.1 456.6,283.4 456,284 455.8,284.3 455.7,284.6 
		455.8,284.8 455.8,285 455.7,285.2 455.3,286 455.2,286.2 455.1,286.4 454.8,286.5 454.6,286.6 454.4,286.9 454.1,287.2 
		453.8,287.4 453.1,287.5 452.7,287.5 452.4,287.5 452.2,287.4 451.3,286.9 451,286.9 450.8,286.9 449.4,287.3 449,287.4 
		448.7,287.4 448.2,287.3 448,287.4 447.7,287.7 446.9,289.4 446.1,290.3 445.7,290.4 444.9,290.5 443.3,290.2 442.5,290 
		440.3,288.7 436.1,285.3 436,285.1 435.9,285 435.7,284.8 435.6,284.7 435.1,284 434.5,283.3 434.2,283.1 434,283 433.8,282.9 
		433.5,282.9 432.6,282.9 431.7,283.1 431.3,283.1 430.8,283.1 430,283 429.5,282.9 429.3,283 429.1,283 429,283 428.8,283.1 
		428.7,283.2 428.4,283.5 427.9,284.2 427.7,284.5 427.4,284.7 427.2,284.8 427,284.9 426.4,285.1 426,285.3 425.7,285.5 
		425.3,285.8 425.2,285.9 425.1,286.1 425,286.2 424.4,287.9 424.2,288.3 423.9,288.6 423.3,289.1 423,289.4 422.8,289.5 
		421.5,289.8 421.1,289.9 421,290 420.8,290.2 420.7,290.3 420.6,290.5 420.5,290.7 420.5,291 420.4,291.2 420.4,291.5 420.5,291.9 
		420.7,292.3 421.1,293 421.3,293.3 421.3,293.5 421.4,293.8 421.4,294.7 421.3,295 421.3,295.2 421.2,295.4 421,295.6 420.8,295.7 
		420.6,295.8 420.5,295.9 420.4,296 420.1,296.6 419.8,297 419.6,297.3 419.5,297.4 419.3,297.4 419,297.2 418.7,297 418.3,296.9 
		418,296.7 417.8,296.4 413.5,284.3 413.1,283.6 412.5,282.8 411.4,282.1 411,281.7 410.8,281.4 410.8,281.2 410.9,281 411,280.9 
		411.3,280.5 411.6,280.3 411.7,280.1 412,279.9 412.2,279.7 412.3,279.6 412.4,279.4 412.4,279.2 412.5,278.9 412.5,277.6 
		412.5,277.4 412.6,277.1 412.8,276.8 413,276.4 415.1,274.6 415.3,274.3 415.8,273.5 415.9,273.1 415.9,272.9 415.9,272.6 
		415.9,272.4 415.8,271.8 415.2,270.4 415,269.5 414.8,268.9 414.5,268.7 414.2,268.6 413.4,268.6 412.7,268.6 411.9,268.4 
		411.2,268.2 410.8,268 408.8,266.7 408.2,266.2 407.9,265.8 407.7,265.6 407.4,265.4 407.3,265.2 406.9,265.1 406.4,264.9 
		405.9,264.9 403.8,265 402.8,265.1 402.1,265.6 402,265.7 401.9,265.8 401.8,266 401.7,266.2 401.6,266.4 401.4,267.6 401.3,267.8 
		401.2,268 401,268.1 400.6,268.3 399.9,268.6 399.4,268.7 398.4,268.8 398,268.8 395.6,268.3 395.3,268.3 394.8,268.5 394.5,268.6 
		394.3,268.8 394.2,268.9 394.1,269.1 394,269.5 393.9,269.7 393.7,269.9 393.5,270.1 392.9,270.3 391.8,270.8 388.8,269.8 
		387.1,270.6 386.6,271.2 386.2,272 386.1,272.9 386,273.8 386.1,276.2 386,277 385.8,277.5 385.6,277.9 385.1,278.5 384.9,278.9 
		384.9,279.3 385.1,279.6 385.2,279.9 385.3,280.7 385.5,281.4 385.8,281.9 386.3,282.3 387.8,282.6 389.4,282.4 390.6,282.7 
		391.3,284.2 391.3,285 391.2,285.7 390.8,286.2 390,286.5 389.1,286.3 387.5,285.5 386.6,285.4 385.7,285.8 385.1,286.5 
		384.6,287.3 384.2,287.6 383.6,288.7 383.3,289 383.1,289.1 379.3,289.9 377.5,289.9 376.1,289.6 375.4,288.9 374.3,287.1 
		373.1,286.5 372,285.1 371.4,284.5 370.8,284.2 370.2,283.8 369.9,283.2 369.5,280.7 369.2,279.2 368.7,278.3 368.6,278 
		368.4,277.6 367.7,277.4 367.5,277.1 367.3,276.5 366.8,275.9 366.4,275.2 366.7,274.5 366,273.1 365.9,272.6 365.6,272.3 
		364.7,271.7 364.5,271.3 364.1,270.3 362.6,269.2 361.4,266.9 360.9,266.4 360.7,266.3 360.5,266.3 360.3,266.3 360.3,266.4 
		358.7,264.6 357.8,264.1 357.5,264.1 357.4,264 357.3,263.8 357,264 356.7,264.1 356.7,264.1 356.5,263.8 356.6,263.3 356.9,263 
		357.3,262.8 357.3,262.2 356.5,259.4 356.5,258.7 356.4,258.3 356.1,258.2 355.9,258.2 355.6,258 355,256.1 355,255.2 354.7,254.6 
		353.7,254 352.7,253.8 351.6,253.8 351.1,253.7 350.8,253.4 350.5,253.2 350.1,253 350.5,252.4 350.7,251.7 350.7,249.7 
		350.9,249.4 351.8,248.5 352.5,247 352.9,246.3 354.2,245.6 354.7,244.8 354.7,244.1 354.1,243.7 353.4,243.5 352.8,243.1 
		352.5,242.5 352.6,241.7 353,241.2 353.6,240.9 354,240.6 354.2,239.9 354.2,238.8 354,238.1 354,237.8 354.1,236.5 354.1,235.9 
		353.6,235.2 352.1,233.4 350.7,232.1 350.5,231.6 350.4,231 350.4,230.3 350.6,229.6 351,229 351.5,228.6 351.4,228.5 355.9,227.9 
		356.2,227.8 356.6,227.5 356.9,227.1 357.1,226.9 357.3,226.5 357.4,226.3 357.6,226.2 357.9,226 358.6,225.9 358.9,225.8 
		359.1,225.6 359.3,225.3 359.6,224.5 359.7,224.3 359.9,224 360,223.9 360.3,223.7 360.6,223.6 361.2,223.4 361.8,223.3 
		363.8,223.2 364.3,223.2 368.1,222 368.3,222 371.9,222.2 372.1,222.2 373.4,221.8 373.9,221.8 374.4,221.8 375.5,221.8 376,221.9 
		377,222.1 378.5,222 383.7,220.9 386.3,221 386.9,221 387.5,220.9 387.7,220.9 389.9,221.1 390.9,221.1 391.1,221 391.4,220.7 
		391.7,220.2 392,219.8 392.3,219.6 393.3,219.3 393.5,219.2 393.6,219 393.7,218.8 393.8,218.3 394,217.9 394,217.5 394.1,217.2 
		394,217 393.9,216.8 393.6,216.3 393.6,216.1 393.5,215.9 393.6,215.7 393.5,215 393.5,214.7 393.7,214.3 393.7,214.3 393.8,214.1 
		393.9,213.9 394.1,213.8 394.4,213.6 394.7,213.6 395.2,213.2 395.4,213.2 395.7,213.2 395.9,213.3 396.1,213.3 396.4,213.2 
		396.5,213 396.5,212.7 396.4,212.5 396.2,212.4 395.6,212.3 395.4,212.2 395.5,212 395.7,211.9 396.2,211.9 396.4,211.8 
		396.6,211.8 396.8,211.8 397.2,211.9 397.5,212 397.7,212 397.9,212 398.1,211.9 398.6,211.7 399,211.5 399.2,211.3 399.3,211.1 
		399.1,210.8 398.8,210.5 395.7,207.7 395.5,207.4 395.5,207.2 395.6,206.9 396.3,205.7 396.4,205.4 396.4,205.2 396.5,203.6 
		396.6,203.1 396.7,202.9 396.9,202.5 397.3,201.9 397.8,201.4 399.4,200.2 400,199.6 400.2,199.3 401,197.8 401.6,197.1 401.7,197 
		401.9,196.8 402.2,196.8 402.5,196.7 402.8,196.7 403.3,196.8 404.2,197.1 405.6,197.9 406.9,198.3 407,198.7 407.1,199.1 
		407.2,199.2 407.4,199.4 407.5,199.5 407.7,199.6 407.9,199.7 408,199.9 408.2,200.3 408.3,200.4 408.4,200.6 408.6,200.6 
		408.9,200.7 409.1,200.7 409.3,200.8 409.4,200.9 410.2,201.3 410.4,201.4 410.6,201.5 411.2,201.4 411.5,201.5 411.7,201.6 
		411.8,201.7 411.9,202 412.1,202.1 412.3,202.1 412.9,201.8 413.1,201.5 413.3,201.3 413.4,201.1 413.4,200.8 413.4,200.6 
		413.3,200.1 413.1,198.7 413,198.4 413.1,198.2 413.1,198 413.2,197.8 413.4,197.5 413.7,197.2 415.1,196.5 415.4,196.2 415.6,196 
		415.8,195.3 415.9,194.9 416.1,194.7 416.2,194.6 416.3,194.5 416.7,194.2 420.9,192.7 421.4,192.5 421.7,192.5 422.1,192.6 
		422.7,192.7 423.2,192.8 423.4,192.8 423.6,192.9 423.8,193.1 424,193.2 424.4,193.2 425,193.2 425.2,193.3 425.3,193.4 
		425.2,193.6 425,193.8 425,193.8 425,193.8 424.5,194.3 424.4,194.5 424.4,194.6 424.6,194.7 424.8,194.7 425.3,194.5 425.7,194.1 
		425.8,194 426,193.8 426,193.8 427.6,192.4 427.7,192.2 427.8,192 428,191.6 428.1,191.4 428.3,191.2 428.3,191.1 428.4,190.9 
		428.4,190.4 428.5,190.2 428.7,190.1 428.9,189.9 429.4,189.7 429.6,189.6 429.8,189.4 429.9,189.2 430,188.4 430.1,188.2 
		430.3,188.1 430.7,188 433.2,188.1 433.5,188.2 433.7,188.3 433.9,188.5 433.9,188.7 433.9,188.9 433.8,189.1 433.7,189.2 
		433.6,189.4 433.5,189.6 433.6,189.8 433.7,189.9 433.8,190.1 434,190.2 434.1,190.3 434.3,190.5 434.3,190.7 434.4,190.9 
		434.4,191.2 434.3,191.4 434.3,191.6 434.2,191.8 434.1,192 433.6,192.4 433.6,192.6 433.5,192.8 433.6,193 433.8,193.1 
		433.9,193.1 434.3,192.8 434.5,192.8 434.7,193 434.9,193.1 435.1,193 435.5,192.8 435.7,192.6 435.9,192.2 436.1,192.1 436.4,192 
		437.7,192 438.3,192.2 438.5,192.2 438.8,192.1 439.3,191.7 439.5,191.5 439.8,191.4 440.2,191.4 440.5,191.5 440.7,191.7 
		440.9,191.7 441.1,191.7 441.3,191.6 441.6,191.3 441.7,191.1 441.8,190.9 442.1,189.7 442.2,189.5 442.3,189.3 442.4,189.1 
		442.5,189 442.7,189 443,189 443.2,189.2 443.5,189.5 443.7,189.6 443.9,189.6 444.6,189.7 444.9,189.7 445.9,189.4 447.7,188.6 
		448.1,188.5 448.4,188.3 448.9,188.2 453,187.3 455,187.1 457.5,185.8 458.3,185.6 458.3,185.6 458.1,186.6 458,187.5 458.5,188.3 
		458.8,188.6 459.3,188.9 459.7,189 460.7,189.1 461,189.3 461.2,189.5 461.6,189.8 462.8,190.2 463.2,190.4 463.5,190.8 464,191.7 
		464.3,192.1 466.5,193.5 467.1,194.2 469.1,198 	"/>
	<polygon id="Eastern" class="st0" points="466.1,330.2 466.4,330.2 466.6,330.1 467.2,329.9 468,329.5 468.6,329.2 468.9,329.2 
		469.1,329.2 471,329.9 471.2,332 471.1,332.8 471,332.9 470.7,333.6 470.4,334.4 470.4,334.9 470.4,335.2 470.4,335.4 470.6,336.4 
		470.7,337.5 470.7,338.2 470.6,338.6 470.5,338.8 470.1,339.3 469.6,339.8 469.4,340 468.7,340.6 468.5,341 468.3,341.4 
		467.9,342.5 467.8,343 467.8,343.4 467.9,343.9 468.1,344.2 468.2,344.4 468.4,344.5 468.5,344.6 469.2,344.8 469.5,345 
		469.9,345.2 470.1,345.5 470.3,345.9 470.5,346.3 470.7,348 470.7,348.5 470.6,348.8 470.5,348.9 470.4,349.1 468.8,350 
		468.6,350.1 468.1,350.7 468,350.8 467.8,351 467.7,351.1 467.6,351.3 467.5,351.5 467.3,351.9 466.6,354.3 466.5,355.1 
		466.5,355.6 466.6,355.7 466.8,355.8 468,355.7 468.2,355.7 468.4,355.8 468.6,355.9 468.7,356 468.8,356.2 468.9,356.7 
		469.1,357.6 469.2,357.8 469.2,358 469.4,358.3 469.7,358.6 470.2,358.9 470.4,359.1 470.6,359.4 470.8,360 470.8,360.4 
		470.7,360.7 469.6,364.2 469.5,364.4 469.3,364.8 469.1,364.9 469,365 468.4,365.5 467.7,365.9 465.9,366.6 465.7,366.8 
		465.9,367.3 466.2,368.1 466.3,368.8 466.1,369.3 465.8,369.8 465.6,370.5 465.7,371.2 465.9,371.6 467.8,373.1 468.6,373.3 
		471.3,373.2 472,373.3 472.5,373.6 473.4,374.3 474.8,375.2 475,375.5 475,375.8 474.9,379.5 473.2,381.5 472.6,382.1 472,382.4 
		471.8,382.5 471.5,382.5 471.2,382.5 471,382.4 470.8,382.3 470.4,381.9 470.2,381.6 469.6,380.7 469.5,380.6 469.3,380.4 
		468.2,379.9 468.1,379.8 467.7,379.6 467.4,379.3 467.2,379 466.7,377.9 466.5,377.7 466.3,377.6 465.7,377.5 465.2,377.5 
		464.7,377.6 464.4,377.7 463,378.7 462.5,378.9 462.2,379 462,379 461.9,379 461.6,378.6 461.4,378.5 461.2,378.3 460.7,378.2 
		460.5,378.2 460.3,378.4 459.7,380.7 459.5,381 459.2,381.2 457.5,381.9 457.3,382.1 457.1,382.3 456.7,383.2 456.3,384.8 
		455.9,385.5 455.8,385.7 455.7,385.9 455.4,386.1 455.2,386.3 454.6,386.6 454.2,386.7 453.9,386.8 453.5,386.6 453.1,386.4 
		453,386.3 452.8,386.1 452.6,386 452.4,385.9 451.9,385.8 451.6,385.9 451.4,386 450.7,386.9 450.4,387.1 450.1,387.3 449.4,387.6 
		449,387.8 448.7,387.8 447.7,387.8 447.3,387.7 446.5,387.5 446.3,387.4 445.7,387.1 445.3,386.9 445.2,386.8 445.1,386.6 
		445.1,385.9 444.9,385.8 444.4,385.7 442.7,385.8 442.3,385.9 441.9,386 441.8,386.1 441.7,386.2 441.7,386.3 441.6,386.4 
		441.4,387.3 441.4,387.6 441.5,387.9 441.5,388 441.6,388.4 439.8,387.6 438.7,387.5 431.9,388 431,388 430.6,387.9 430.3,387.8 
		426.4,387 425.6,386.9 425.2,386.9 424.7,387 423.7,387.2 423.3,387.1 423.1,387.1 422.7,386.8 422.4,386.6 421.8,386.4 
		421.4,386.3 421.1,386.3 417.6,386.3 417.2,386.3 417,386.2 416.9,386.2 416.7,385.9 416.1,384.9 414.8,382.2 414.7,382 
		414.5,381.8 413.3,381.4 412,380.7 412.8,379.2 412.7,378.7 412.6,378.5 412.5,378.4 412.3,378.4 412.1,378.5 412,378.5 
		411.9,378.3 411.9,378.2 411.9,378 412.2,377.5 412.2,377.2 412.2,377.2 412.3,376.9 412.6,376.1 412.9,375.5 413,375.2 
		413.3,374.3 413.3,374.1 413.4,373.9 413.5,373.7 414,373.6 414.2,373.4 414.2,373.2 414.1,373 413.9,372.9 413.8,372.9 
		413.7,372.7 413.7,372.3 413.6,372.2 413.6,372 413.7,371.8 414.2,371 414.2,370.7 414.3,370.2 414.3,369.9 414.3,369.7 
		414.2,369.5 414.1,369.3 414,369.2 413.9,369 414,368.9 414.9,368.4 415.2,368.1 415.4,367.9 415.6,367.7 415.8,367.2 415.9,366.9 
		416,366.4 416.5,364.6 417.1,363 418.8,360.3 424,354.8 424.2,354.6 424.3,354.4 424.6,354.1 425.7,352.9 425.9,352.6 426.1,352.3 
		426.1,352.2 426.1,352 426,351.6 425.8,351.2 425.6,350.9 425.5,350.7 425.3,350.6 424.4,349.8 424.1,349.6 423.8,349.2 
		423.6,348.9 423.6,348.7 423.5,348.5 423.5,348.2 423.5,348 423.6,347.6 423.8,347.2 424.1,346.9 424.5,346.6 425.4,346.2 
		426.3,345.8 429.2,345.4 429.4,345.3 429.7,345.2 430,344.9 437.3,334.7 437.7,334.4 438.3,334.2 443.7,334.1 444.1,334 
		444.6,333.5 444.7,333.3 445,333 445.3,332.9 445.7,332.7 447.7,332 448.2,331.7 448.7,331.3 449,331 449.8,330 450,329.7 
		450.3,329.5 451.1,329.2 453.4,328.8 463.6,329.2 464,329.3 464.4,329.5 465.3,329.9 465.8,330.1 	"/>
	<polygon id="Central" class="st0" points="381.2,372.8 381.4,372.8 381.7,372.6 381.9,372.6 382.1,372.7 382.3,373.1 382.9,374.7 
		383.2,375.1 383.4,375.3 383.6,375.3 383.7,375.4 383.9,375.5 384.5,376.3 384.9,376.7 385.2,376.8 385.4,376.7 385.5,376.6 
		385.6,376.4 385.7,376.3 386,376.3 386.5,376.6 386.9,376.6 387.1,376.6 387.3,376.6 387.5,376.5 387.7,376.2 387.9,376.2 
		388,376.1 388.5,376.2 389,376.4 389.1,376.6 389.1,376.8 389,377 389,377.2 389,377.4 389,377.6 389,377.8 389.2,378 390.1,378.5 
		390.2,378.6 390.4,378.8 390.5,379 391.1,379.1 391.5,379.1 392.6,379.6 392.8,379.7 393,380.1 393.3,380.2 393.6,380.4 
		394.2,380.7 394.6,380.8 394.8,380.7 395,380.7 395.3,380.7 395.8,380.6 396.7,380.5 397.1,380.4 397.6,380.5 397.9,380.6 
		398.2,380.6 398.5,380.5 399,380.5 399.2,380.5 399.4,380.4 399.6,380.4 400,380.5 400.6,380.6 400.9,380.8 401.2,381.1 
		401.4,381.3 401.5,381.5 401.5,381.7 401.4,381.8 401.2,381.9 401,381.9 400.9,382 400.9,382.2 401,382.5 401.7,382.9 402.1,383 
		402.4,383.2 402.6,383.2 402.8,383.1 402.9,382.9 403.1,382.4 403.1,382.2 403,382 403,381.9 403.1,381.7 403.5,381.7 403.9,381.7 
		404.1,381.6 404.3,381.5 404.6,381.5 404.8,381.4 404.9,381.2 405,381.1 405.8,380.9 406,380.9 406.2,380.9 406.4,380.8 
		406.5,380.7 406.8,380.6 407.1,380.6 408,380.8 408.3,381 408.5,381.1 408.7,381.1 408.9,381.1 409.2,381 409.4,381.1 409.5,381.3 
		409.5,381.5 409.6,381.8 409.7,382 409.9,382 410.1,382 410.3,381.9 410.5,381.8 410.8,381.6 411.1,381.6 411.2,381.6 411.3,381.8 
		411.4,381.8 411.5,381.6 411.5,381.4 411.6,381.2 411.8,381 411.9,381 412,380.9 412,380.7 413.3,381.4 414.5,381.8 414.7,382 
		414.8,382.2 416.1,384.9 416.7,385.9 416.9,386.2 417,386.2 417.2,386.3 417.6,386.3 421.1,386.3 421.4,386.3 421.8,386.4 
		422.4,386.6 422.7,386.8 423.1,387.1 423.3,387.1 423.7,387.2 424.7,387 425.2,386.9 425.6,386.9 426.4,387 430.3,387.8 
		430.6,387.9 431,388 431.9,388 438.7,387.5 439.8,387.6 441.6,388.4 443.1,391.3 443.7,392.2 444,392.5 444.4,392.7 444.6,392.7 
		445.3,393.1 445.8,393.5 446.1,393.7 446.3,394 446.9,395.4 447.5,397.6 447,397.8 444.1,400.3 443.7,400.7 443.5,401.4 443,401.9 
		441.5,402.8 438.7,403.5 438.2,403.5 437.9,403.8 437.3,404.3 436.6,404.5 436.3,404 434.2,405.4 433.7,405.6 431.3,407.5 
		430.4,408.7 429.8,409.1 426.8,409.5 425.8,409.5 425.3,408.9 425,409.3 424.6,409.4 423.6,409.5 422.6,409.7 422.2,409.7 
		421.9,409.3 421.8,409 421.5,409.1 421,409.5 420.3,409.5 419.7,409.7 415.5,411.5 415,412.1 414.7,412.5 413.9,413 412.3,413.7 
		411.4,413.9 408.8,413.9 408.4,414.1 407.4,414.6 407,414.8 406.6,414.8 405.8,414.8 405.4,414.8 404.6,415 403.1,415.7 
		400.3,416.1 399.4,416.5 398.7,417 398.7,417 398.7,417 398.4,414.3 398.4,413.9 398.6,412.9 398.7,412.5 398.9,412.1 399.7,410.6 
		399.9,410.3 400.1,410.2 400.2,410 400.4,409.9 400.6,409.9 401,409.8 401.2,409.7 401.8,409.7 402,409.7 402.2,409.7 402.4,409.6 
		402.5,409.5 402.7,409.4 402.8,409.3 403.3,408.6 404.6,407.7 404.7,407.6 404.7,407.3 404.6,407 404.2,406.6 403.9,406.3 
		402.3,405.3 400.9,404.1 400.4,403.5 400.3,403.2 400.2,402.9 399.9,402 399.7,401.7 399.6,401.5 399.2,401.2 399,401 398.7,400.9 
		398.3,400.7 398,400.5 397.8,400.3 397.2,399.5 396.9,398.8 396.8,398.4 396.8,398.1 396.8,397.9 396.9,397.4 397,397 397.1,396.8 
		397.2,396.6 397.4,396.6 397.6,396.5 397.8,396.4 397.9,396.3 398.1,395.9 398.2,395.8 398.1,395.6 398.1,395.4 397.7,394.8 
		397.2,394.2 396.7,393.8 395.9,393.4 395.5,393.2 395.1,393.1 394.6,393 393.6,393 393.4,392.9 393.2,392.8 393,392.7 392.5,392.4 
		392.4,392.3 392.2,392.2 391.9,392.1 391.7,392.1 391.2,392.2 390.8,392.3 389.4,392.8 389.2,392.9 389,392.8 388.8,392.6 
		388.6,392.3 388.5,391.5 388.5,391 388.5,390.7 388.8,390 389,389.1 389.1,388.7 389,387.9 389,387.7 389.1,387.4 389.2,387.3 
		389.3,387.1 389.6,386.8 389.7,386.7 389.8,386.5 389.7,386.2 389.4,386 388.9,385.8 388.7,385.6 388.6,385.3 388.6,384.9 
		388.6,384.3 388.8,383.6 388.8,383.3 388.7,382.9 388.5,382.5 388,381.8 387.7,381.4 387.4,381.2 387.2,381.1 386.2,380.9 
		386,380.8 385.9,380.7 385.1,380.1 385,380 384.9,379.9 383.1,377.2 382.3,376.4 382.1,376.3 382,376.2 381.4,375.9 380.1,375.3 
		379.9,375.3 379.8,375.1 379.6,375 379.2,373.9 379.1,373.6 378.7,373.2 378.3,373 377.5,372.7 377.3,372.6 377,372.5 376.3,372.2 
		375.1,371.4 375,371.3 374.7,370.8 374.5,370.4 374.5,370.2 374.4,369.7 374.5,369.1 374.5,368.7 374.6,368.4 374.8,368.2 
		375.1,368 375.8,367.6 376.9,367.1 377.4,366.8 378,366.2 378.3,365.8 378.5,365.2 380.4,365.3 380.9,365.5 381,365.8 381,366 
		381,366.2 380.9,366.4 380.7,366.8 380.7,367 380.6,367.3 380.7,367.9 380.7,368.1 380.6,368.3 380.4,368.4 380.3,368.6 
		380.2,368.9 380.8,372 381,372.5 	"/>
	<polygon id="Greater_Accra" class="st0" points="489.2,387 476.7,386.1 475,386.2 474,386.4 473.5,386.6 473.3,386.9 473.1,387 
		472.2,387 471.8,387.1 471.1,387.7 468.4,388.4 467.7,388.8 466.6,389.9 465.1,390.3 464.5,390.9 464.1,391.6 463.4,392.3 
		460.2,393.4 460,393.5 459.5,394 459.2,394.2 458.9,394.3 458.3,394.4 449.6,397.2 447.8,397.4 447.5,397.6 447.5,397.6 
		446.9,395.4 446.3,394 446.1,393.7 445.8,393.5 445.3,393.1 444.6,392.7 444.4,392.7 444,392.5 443.7,392.2 443.1,391.3 
		441.6,388.4 441.5,388 441.5,387.9 441.4,387.6 441.4,387.3 441.6,386.4 441.7,386.3 441.7,386.2 441.8,386.1 441.9,386 
		442.3,385.9 442.7,385.8 444.4,385.7 444.9,385.8 445.1,385.9 445.1,386.6 445.2,386.8 445.3,386.9 445.7,387.1 446.3,387.4 
		446.5,387.5 447.3,387.7 447.7,387.8 448.7,387.8 449,387.8 449.4,387.6 450.1,387.3 450.4,387.1 450.7,386.9 451.4,386 
		451.6,385.9 451.9,385.8 452.4,385.9 452.6,386 452.8,386.1 453,386.3 453.1,386.4 453.5,386.6 453.9,386.8 454.2,386.7 
		454.6,386.6 455.2,386.3 455.4,386.1 455.7,385.9 455.8,385.7 455.9,385.5 456.3,384.8 456.7,383.2 457.1,382.3 457.3,382.1 
		457.5,381.9 459.2,381.2 459.5,381 459.7,380.7 460.3,378.4 460.5,378.2 460.7,378.2 461.2,378.3 461.4,378.5 461.6,378.6 
		461.9,379 462,379 462.2,379 462.5,378.9 463,378.7 464.4,377.7 464.7,377.6 465.2,377.5 465.7,377.5 466.3,377.6 466.5,377.7 
		466.7,377.9 467.2,379 467.4,379.3 467.7,379.6 468.1,379.8 468.2,379.9 469.3,380.4 469.5,380.6 469.6,380.7 470.2,381.6 
		470.4,381.9 470.8,382.3 471,382.4 471.2,382.5 471.5,382.5 471.8,382.5 472,382.4 472.6,382.1 473.2,381.5 474.9,379.5 
		475.2,378.9 475.4,378.7 475.6,378.4 476.4,377.9 477.1,377.5 477.5,377.3 477.9,377.3 478.2,377.2 478.2,377.2 481.5,377.4 
		484.6,378.1 485.2,378.4 485.5,378.6 485.9,379.1 487.4,382.9 487.8,383.5 488.3,383.8 488.8,384.2 489.7,384.5 490.3,384.8 
		490.6,385.1 490.7,385.2 490.9,385.3 491,385.5 491.1,385.8 491,386 490.8,386.2 490,386.4 489.2,387 	"/>
	<polygon id="Brong-Ahafo" class="st0" points="360.3,266.4 360.3,266.3 360.5,266.3 360.7,266.3 360.9,266.4 361.4,266.9 
		362.6,269.2 364.1,270.3 364.5,271.3 364.7,271.7 365.6,272.3 365.9,272.6 366,273.1 366.7,274.5 366.4,275.2 366.8,275.9 
		367.3,276.5 367.5,277.1 367.7,277.4 368.4,277.6 368.6,278 368.7,278.3 369.2,279.2 369.5,280.7 369.9,283.2 370.2,283.8 
		370.8,284.2 371.4,284.5 372,285.1 373.1,286.5 374.3,287.1 375.4,288.9 376.1,289.6 377.5,289.9 379.3,289.9 383.1,289.1 
		383.3,289 383.6,288.7 384.2,287.6 384.6,287.3 385.1,286.5 385.7,285.8 386.6,285.4 387.5,285.5 389.1,286.3 390,286.5 
		390.8,286.2 391.2,285.7 391.3,285 391.3,284.2 390.6,282.7 389.4,282.4 387.8,282.6 386.3,282.3 385.8,281.9 385.5,281.4 
		385.3,280.7 385.2,279.9 385.1,279.6 384.9,279.3 384.9,278.9 385.1,278.5 385.6,277.9 385.8,277.5 386,277 386.1,276.2 386,273.8 
		386.1,272.9 386.2,272 386.6,271.2 387.1,270.6 388.8,269.8 391.8,270.8 392.9,270.3 393.5,270.1 393.7,269.9 393.9,269.7 
		394,269.5 394.1,269.1 394.2,268.9 394.3,268.8 394.5,268.6 394.8,268.5 395.3,268.3 395.6,268.3 398,268.8 398.4,268.8 
		399.4,268.7 399.9,268.6 400.6,268.3 401,268.1 401.2,268 401.3,267.8 401.4,267.6 401.6,266.4 401.7,266.2 401.8,266 401.9,265.8 
		402,265.7 402.1,265.6 402.8,265.1 403.8,265 405.9,264.9 406.4,264.9 406.9,265.1 407.3,265.2 407.4,265.4 407.7,265.6 
		407.9,265.8 408.2,266.2 408.8,266.7 410.8,268 411.2,268.2 411.9,268.4 412.7,268.6 413.4,268.6 414.2,268.6 414.5,268.7 
		414.8,268.9 415,269.5 415.2,270.4 415.8,271.8 415.9,272.4 415.9,272.6 415.9,272.9 415.9,273.1 415.8,273.5 415.3,274.3 
		415.1,274.6 413,276.4 412.8,276.8 412.6,277.1 412.5,277.4 412.5,277.6 412.5,278.9 412.4,279.2 412.4,279.4 412.3,279.6 
		412.2,279.7 412,279.9 411.7,280.1 411.6,280.3 411.3,280.5 411,280.9 410.9,281 410.8,281.2 410.8,281.4 411,281.7 411.4,282.1 
		412.5,282.8 413.1,283.6 413.5,284.3 417.8,296.4 418,296.7 418.3,296.9 418.7,297 419,297.2 419.3,297.4 419.5,297.4 419.6,297.3 
		419.8,297 420.1,296.6 420.4,296 420.5,295.9 420.6,295.8 420.8,295.7 421,295.6 421.2,295.4 421.3,295.2 421.3,295 421.4,294.7 
		421.4,293.8 421.3,293.5 421.3,293.3 421.1,293 420.7,292.3 420.5,291.9 420.4,291.5 420.4,291.2 420.5,291 420.5,290.7 
		420.6,290.5 420.7,290.3 420.8,290.2 421,290 421.1,289.9 421.5,289.8 422.8,289.5 423,289.4 423.3,289.1 423.9,288.6 424.2,288.3 
		424.4,287.9 425,286.2 425.1,286.1 425.2,285.9 425.3,285.8 425.7,285.5 426,285.3 426.4,285.1 427,284.9 427.2,284.8 427.4,284.7 
		427.7,284.5 427.9,284.2 428.4,283.5 428.7,283.2 428.8,283.1 429,283 429.1,283 429.3,283 429.5,282.9 430,283 430.8,283.1 
		431.3,283.1 431.7,283.1 432.6,282.9 433.5,282.9 433.8,282.9 434,283 434.2,283.1 434.5,283.3 435.1,284 435.6,284.7 435.7,284.8 
		435.9,285 436,285.1 436.1,285.3 440.3,288.7 442.5,290 443.3,290.2 444.9,290.5 445.7,290.4 446.1,290.3 448.4,290.9 449.2,291.3 
		454.8,295.8 455.3,296.4 455.7,297.2 457.5,301.2 457.6,301.7 457.8,303.1 457.9,303.5 458,303.8 459,305.3 459.3,305.7 459.7,306 
		460.1,306.1 460.5,306.2 461.4,306.4 461.7,306.5 462.2,306.8 462.4,307.1 462.6,307.5 462.6,308 463.6,310.7 466.2,315.3 
		466.7,316.5 466.8,316.7 466.9,319.1 467,319.4 467.1,319.9 467.3,320.2 467.5,320.4 469,321.1 470.1,321.4 470.4,321.6 
		470.7,321.8 471.2,322.2 471.4,322.5 471.6,322.7 471.7,323.9 471.7,324.5 471.6,325.7 470.9,327.9 470.8,328.3 470.8,328.6 
		471,329.9 469.1,329.2 468.9,329.2 468.6,329.2 468,329.5 467.2,329.9 466.6,330.1 466.4,330.2 466.1,330.2 465.8,330.1 
		465.3,329.9 464.4,329.5 464,329.3 463.6,329.2 453.4,328.8 451.6,325.6 450.8,324.6 450.6,324.5 450.4,324.4 444.7,322.3 
		440.5,321.5 439.2,321.1 438.9,321 438.6,320.8 438.4,320.5 438,319.8 437.2,318.1 436.3,316.6 435.6,315.8 434.6,315 434.2,314.7 
		433.8,314.7 433.7,314.8 433.5,314.9 432.7,315.2 432.3,315.4 431.7,315.9 431.5,315.9 431.2,315.9 431,315.7 430.8,315.7 
		430.7,315.8 430.5,316.2 430.4,316.4 430.2,316.5 430,316.6 429.8,316.5 429.7,316.4 429.6,316.2 429.4,316.1 429.1,316.1 
		428.5,316 428.2,315.8 427.8,315.6 427.5,315.5 427.2,315.5 426.9,315.5 426.6,315.6 426.4,315.7 426.1,315.9 425.9,315.9 
		425.5,315.9 424.9,316 424.6,316 424.4,315.9 424.2,315.7 423.9,315.3 423.7,315.3 423.5,315.3 423,315.4 422.6,315.4 422.4,315.3 
		422.1,314.9 421.9,314.8 420.7,314.6 420.4,314.6 420.1,314.7 420,314.9 419.8,315.2 419.7,315.3 419.1,315.7 418.9,316 
		418.7,316.1 418.6,316.3 418.5,316.7 418.4,316.9 418.2,317 417.5,317.2 417,317.2 416.4,317.4 416,317.4 415.8,317.4 415.6,317.5 
		415.1,317.5 414.9,317.6 414.7,317.7 414.5,317.8 414.3,317.8 413.5,317.8 412.6,317.9 411.7,317.9 410.8,317.8 410.3,317.7 
		410,317.6 409.8,317.4 409.6,317.1 409.4,316.8 409.3,316.6 409.1,316.3 409,315.9 408.9,313.9 408.9,313.5 408.6,312.6 
		408.4,312.3 408.2,312.1 407.9,311.8 407.3,311.5 407,311.3 406.7,311.3 406.5,311.3 406.3,311.4 406.1,311.5 405.7,311.7 
		405.6,311.8 405.3,312.1 404,314.2 403.5,314.8 403.2,315.1 401.5,316.1 400.3,316.9 400.2,317.1 400.2,317.2 400.1,317.3 
		400.1,317.5 400.2,317.7 400.5,318.5 400.7,319.4 400.7,319.6 400.7,319.9 400.6,320.1 400.1,320.3 399.7,320.4 398.8,320.4 
		398.5,320.4 398.3,320.5 397.9,320.7 397.5,321.1 396.9,322.1 396.6,322.4 396.4,322.6 396.1,322.7 395.4,322.8 395,322.8 
		394.7,322.7 394.1,322.4 393.8,322.4 393.6,322.4 393.3,322.4 392.5,322.7 392.2,322.8 391.8,322.9 391.6,322.8 391.4,322.7 
		391.2,322.6 390.9,322.2 390.4,321.8 389.5,321.3 388.9,321.1 388.5,320.9 388.4,320.7 388.3,320.5 388.2,320.1 388.1,318.3 
		388,318 387.9,317.8 387.5,317.6 387.3,317.6 387,317.6 386.1,317.8 385.7,318 385.5,318 384,318.1 383.6,318 383.3,317.9 
		382.9,317.7 382.6,317.6 382.3,317.6 382,317.7 381,317.7 380.7,317.7 380.4,318 380.1,318.1 379.5,318.2 377.6,317.9 377.1,317.9 
		376.8,318 376.7,318.2 376.7,318.5 376.6,318.7 376.5,318.9 376.5,319.1 376.3,319.5 376.2,319.7 376,320 375.9,320.2 375.9,320.4 
		375.9,321.1 375.8,321.3 375.7,321.7 375.6,321.9 375.6,322.1 375.6,322.2 375.8,322.3 375.9,322.4 376.1,322.5 376.6,322.5 
		377.1,322.5 377.6,322.5 377.8,322.5 378,322.6 378.2,322.7 379.1,323.8 379.2,323.9 379.4,324 379.6,324.1 379.8,324.1 
		381.3,323.8 381.5,323.7 381.7,323.8 381.8,323.8 383.4,325.1 384.4,326.3 384.8,326.5 385.2,326.6 387.1,327.1 387.3,327.2 
		387.3,327.4 387.2,327.6 386.9,328.1 386.8,328.3 386.8,328.5 386.9,329.2 386.9,329.4 386.6,330.2 386.5,330.4 386.3,330.5 
		386,330.6 385.6,330.7 384.7,330.8 384.3,330.9 384,331 383.6,331.4 382.6,332.7 382.1,333.3 381,334.1 379.9,334.7 379.1,335 
		374.2,335.3 373.8,335.2 373.7,335.1 373.6,334.9 373.5,334.5 373.4,334.3 373.2,334.1 373,334 372.4,333.9 372.1,333.9 371.8,334 
		371.3,334.3 368.8,337.1 368.7,337.3 368.6,337.5 368.6,337.9 368.5,338.1 368.4,338.3 368.3,338.6 368.2,338.8 368.2,339.5 
		368.2,339.7 368.1,339.8 368,340 367.9,340.1 367.8,340.3 367.7,340.5 367.4,340.7 367.1,341.1 367,341.2 366.5,341.6 366.3,341.7 
		366,341.9 365.8,342 365.7,342.1 365.6,342.3 365.6,342.5 365.6,342.6 365.8,342.7 366,342.8 366.2,342.7 367.7,342.3 369.7,342.4 
		370.5,342.5 371,342.6 371.2,342.7 371.3,342.8 371.5,343 371.6,343.1 371.6,343.3 371.6,343.5 371.5,343.6 371.2,343.7 
		370.9,343.9 370.6,344 370.4,344.2 370.3,344.3 370.2,344.5 370.1,344.7 370,345.1 369.7,347.5 369.6,347.7 369.4,348.1 
		369.2,348.5 369.1,348.7 369,348.8 368.7,349 368.3,349.2 367.5,349.5 367,349.6 366.7,349.7 366.1,349.7 365.1,349.4 364.8,349.4 
		364.7,349.5 364.7,349.7 364.6,349.9 364.5,350.6 364.5,350.8 364.5,351.1 364.6,351.2 365,351.4 365.2,351.5 365.2,351.7 
		365.3,352.4 365.4,352.6 365.5,352.7 366,353 366.2,353.2 366.2,353.3 366.2,353.5 366,353.8 365.9,354 365.8,354.2 365.9,354.4 
		366.1,354.8 366.1,354.9 366.1,355.1 366,355.3 365.9,355.7 365.7,355.9 365.6,356 365.4,356.1 365.2,356.5 364.9,356.7 
		364.8,356.8 364.7,357 364.5,357.4 364.3,357.6 364.1,357.8 364,358 363.9,358.4 363.6,358.9 363.6,359.1 363.7,359.4 363.7,359.6 
		363.5,359.8 363.4,360 363.4,360.2 363.5,360.4 363.6,360.5 364.1,360.6 364.2,360.8 364.3,361 364.3,361.2 364.2,361.6 
		363.9,361.5 363.5,361.4 363,361 362.5,360.7 362.3,360.7 362.1,360.6 361,360.6 360.8,360.5 360.5,360.4 360.3,360.2 358.5,356.4 
		358.4,356.2 358.1,356.1 357.7,355.9 356.9,355.6 356.7,355.5 356.5,355.4 356.3,355.2 356.1,354.9 355.9,354.5 355.7,353.7 
		355.6,353.5 355.3,353.3 354.8,353 354.4,352.9 354.1,352.9 352.5,353 352,353 351.6,352.9 351.4,352.8 349.8,351.6 349.4,351.4 
		348.3,351.1 348.1,351 348,350.9 347.9,350.7 347.9,350.4 347.8,350 347.7,349.6 347.5,349 347.4,348.6 347.3,348.2 347.4,348 
		347.4,347.8 347.7,347 347.8,346.8 347.8,346.6 347.7,346.1 347.6,345.9 347.5,345.7 347.5,345.5 347.5,344.8 347.4,344.5 
		346.8,343.1 346.6,342.3 345.6,340.5 345.2,340 344.6,339.5 343.3,338.8 342.7,338.5 342.3,338.4 341.8,338.5 340.3,339.1 
		340.1,339.2 339.9,339.2 339.4,339.2 339.1,339.1 338.9,338.9 338.6,338.7 338.4,338.5 338.3,338.3 337.8,337.6 337.6,336.7 
		337.1,334.6 337.1,334.5 337.1,334.4 337.2,334.4 339.2,333.8 339.4,333.5 339.7,331.4 339.9,331 341.8,328.7 342.1,327.9 
		342.2,327.4 342,327 341.7,326.7 341.4,326.1 341.4,325.7 343.4,313.2 343.9,311.5 346.8,305.3 347,305 347.4,304.5 347.6,304.2 
		347.6,304 347.4,303.5 347.5,303.3 347.8,303 348.7,302.4 349,302.1 349.2,301.6 349.4,298.6 349.5,298.3 349.7,298.3 350,298.4 
		350.2,298.7 350.3,298.8 350.9,298.2 352.8,296.1 353.5,295.6 355.9,294.8 356.7,294.3 357.1,293.8 357.2,293.1 356.9,292.1 
		356.4,291 356.3,290.4 356.4,289.8 356.7,289.3 357,289 357.3,289 357.8,289.3 358.3,289.3 358.8,289.1 360.7,288.1 360.9,287.5 
		359.1,276 357.2,264.6 357,264 357.3,263.8 357.4,264 357.5,264.1 357.8,264.1 358.7,264.6 	"/>
	<polygon id="Ashanti" class="st0" points="412.6,317.9 413.5,317.8 414.3,317.8 414.5,317.8 414.7,317.7 414.9,317.6 415.1,317.5 
		415.6,317.5 415.8,317.4 416,317.4 416.4,317.4 417,317.2 417.5,317.2 418.2,317 418.4,316.9 418.5,316.7 418.6,316.3 418.7,316.1 
		418.9,316 419.1,315.7 419.7,315.3 419.8,315.2 420,314.9 420.1,314.7 420.4,314.6 420.7,314.6 421.9,314.8 422.1,314.9 
		422.4,315.3 422.6,315.4 423,315.4 423.5,315.3 423.7,315.3 423.9,315.3 424.2,315.7 424.4,315.9 424.6,316 424.9,316 425.5,315.9 
		425.9,315.9 426.1,315.9 426.4,315.7 426.6,315.6 426.9,315.5 427.2,315.5 427.5,315.5 427.8,315.6 428.2,315.8 428.5,316 
		429.1,316.1 429.4,316.1 429.6,316.2 429.7,316.4 429.8,316.5 430,316.6 430.2,316.5 430.4,316.4 430.5,316.2 430.7,315.8 
		430.8,315.7 431,315.7 431.2,315.9 431.5,315.9 431.7,315.9 432.3,315.4 432.7,315.2 433.5,314.9 433.7,314.8 433.8,314.7 
		434.2,314.7 434.6,315 435.6,315.8 436.3,316.6 437.2,318.1 438,319.8 438.4,320.5 438.6,320.8 438.9,321 439.2,321.1 440.5,321.5 
		444.7,322.3 450.4,324.4 450.6,324.5 450.8,324.6 451.6,325.6 453.4,328.8 451.1,329.2 450.3,329.5 450,329.7 449.8,330 449,331 
		448.7,331.3 448.2,331.7 447.7,332 445.7,332.7 445.3,332.9 445,333 444.7,333.3 444.6,333.5 444.1,334 443.7,334.1 438.3,334.2 
		437.7,334.4 437.3,334.7 430,344.9 429.7,345.2 429.4,345.3 429.2,345.4 426.3,345.8 425.4,346.2 424.5,346.6 424.1,346.9 
		423.8,347.2 423.6,347.6 423.5,348 423.5,348.2 423.5,348.5 423.6,348.7 423.6,348.9 423.8,349.2 424.1,349.6 424.4,349.8 
		425.3,350.6 425.5,350.7 425.6,350.9 425.8,351.2 426,351.6 426.1,352 426.1,352.2 426.1,352.3 425.9,352.6 425.7,352.9 
		424.6,354.1 424.3,354.4 424.2,354.6 424,354.8 418.8,360.3 417.1,363 416.5,364.6 416,366.4 415.9,366.9 415.8,367.2 415.6,367.7 
		415.4,367.9 415.2,368.1 414.9,368.4 414,368.9 413.9,369 414,369.2 414.1,369.3 414.2,369.5 414.3,369.7 414.3,369.9 414.3,370.2 
		414.2,370.7 414.2,371 413.7,371.8 413.6,372 413.6,372.2 413.7,372.3 413.7,372.7 413.8,372.9 413.9,372.9 414.1,373 414.2,373.2 
		414.2,373.4 414,373.6 413.5,373.7 413.4,373.9 413.3,374.1 413.3,374.3 413,375.2 412.9,375.5 412.6,376.1 412.3,376.9 
		412.2,377.2 412.2,377.2 412.2,377.5 411.9,378 411.9,378.2 411.9,378.3 412,378.5 412.1,378.5 412.3,378.4 412.5,378.4 
		412.6,378.5 412.7,378.7 412.8,379.2 412,380.7 412,380.9 411.9,381 411.8,381 411.6,381.2 411.5,381.4 411.5,381.6 411.4,381.8 
		411.3,381.8 411.2,381.6 411.1,381.6 410.8,381.6 410.5,381.8 410.3,381.9 410.1,382 409.9,382 409.7,382 409.6,381.8 409.5,381.5 
		409.5,381.3 409.4,381.1 409.2,381 408.9,381.1 408.7,381.1 408.5,381.1 408.3,381 408,380.8 407.1,380.6 406.8,380.6 406.5,380.7 
		406.4,380.8 406.2,380.9 406,380.9 405.8,380.9 405,381.1 404.9,381.2 404.8,381.4 404.6,381.5 404.3,381.5 404.1,381.6 
		403.9,381.7 403.5,381.7 403.1,381.7 403,381.9 403,382 403.1,382.2 403.1,382.4 402.9,382.9 402.8,383.1 402.6,383.2 402.4,383.2 
		402.1,383 401.7,382.9 401,382.5 400.9,382.2 400.9,382 401,381.9 401.2,381.9 401.4,381.8 401.5,381.7 401.5,381.5 401.4,381.3 
		401.2,381.1 400.9,380.8 400.6,380.6 400,380.5 399.6,380.4 399.4,380.4 399.2,380.5 399,380.5 398.5,380.5 398.2,380.6 
		397.9,380.6 397.6,380.5 397.1,380.4 396.7,380.5 395.8,380.6 395.3,380.7 395,380.7 394.8,380.7 394.6,380.8 394.2,380.7 
		393.6,380.4 393.3,380.2 393,380.1 392.8,379.7 392.6,379.6 391.5,379.1 391.1,379.1 390.5,379 390.4,378.8 390.2,378.6 
		390.1,378.5 389.2,378 389,377.8 389,377.6 389,377.4 389,377.2 389,377 389.1,376.8 389.1,376.6 389,376.4 388.5,376.2 388,376.1 
		387.9,376.2 387.7,376.2 387.5,376.5 387.3,376.6 387.1,376.6 386.9,376.6 386.5,376.6 386,376.3 385.7,376.3 385.6,376.4 
		385.5,376.6 385.4,376.7 385.2,376.8 384.9,376.7 384.5,376.3 383.9,375.5 383.7,375.4 383.6,375.3 383.4,375.3 383.2,375.1 
		382.9,374.7 382.3,373.1 382.1,372.7 381.9,372.6 381.7,372.6 381.4,372.8 381.2,372.8 381,372.5 380.8,372 380.2,368.9 
		380.3,368.6 380.4,368.4 380.6,368.3 380.7,368.1 380.7,367.9 380.6,367.3 380.7,367 380.7,366.8 380.9,366.4 381,366.2 381,366 
		381,365.8 380.9,365.5 380.4,365.3 378.5,365.2 377.6,365.2 377.3,365.2 377,365.1 376.8,364.8 376.7,364.5 376.6,364.3 
		376.4,363.7 376.3,363.5 376,363 375.8,362.8 375.7,362.7 375.5,362.6 372.5,361.9 372.2,361.7 372.1,361.6 372,361.4 372,361.1 
		372.1,360.6 372.8,358.3 372.8,358.1 372.8,357.9 372.8,357.7 372.7,357.6 372.6,357.4 372.4,357.3 372.1,357.3 371.8,357.3 
		370.9,357.6 370.6,357.6 370.4,357.6 369.1,356.8 368.7,356.6 368.5,356.6 368.3,356.5 368.1,356.7 367.8,356.8 367.6,357.3 
		367.5,357.6 367.1,360.5 367,360.9 366.8,361.3 366.7,361.7 366.5,361.9 366,362.4 365.9,362.6 365.5,362.7 365.3,362.8 365,362.8 
		364.7,362.8 364.4,362.8 364.2,362.6 364.1,362.5 364.2,361.6 364.3,361.2 364.3,361 364.2,360.8 364.1,360.6 363.6,360.5 
		363.5,360.4 363.4,360.2 363.4,360 363.5,359.8 363.7,359.6 363.7,359.4 363.6,359.1 363.6,358.9 363.9,358.4 364,358 364.1,357.8 
		364.3,357.6 364.5,357.4 364.7,357 364.8,356.8 364.9,356.7 365.2,356.5 365.4,356.1 365.6,356 365.7,355.9 365.9,355.7 366,355.3 
		366.1,355.1 366.1,354.9 366.1,354.8 365.9,354.4 365.8,354.2 365.9,354 366,353.8 366.2,353.5 366.2,353.3 366.2,353.2 366,353 
		365.5,352.7 365.4,352.6 365.3,352.4 365.2,351.7 365.2,351.5 365,351.4 364.6,351.2 364.5,351.1 364.5,350.8 364.5,350.6 
		364.6,349.9 364.7,349.7 364.7,349.5 364.8,349.4 365.1,349.4 366.1,349.7 366.7,349.7 367,349.6 367.5,349.5 368.3,349.2 
		368.7,349 369,348.8 369.1,348.7 369.2,348.5 369.4,348.1 369.6,347.7 369.7,347.5 370,345.1 370.1,344.7 370.2,344.5 370.3,344.3 
		370.4,344.2 370.6,344 370.9,343.9 371.2,343.7 371.5,343.6 371.6,343.5 371.6,343.3 371.6,343.1 371.5,343 371.3,342.8 
		371.2,342.7 371,342.6 370.5,342.5 369.7,342.4 367.7,342.3 366.2,342.7 366,342.8 365.8,342.7 365.6,342.6 365.6,342.5 
		365.6,342.3 365.7,342.1 365.8,342 366,341.9 366.3,341.7 366.5,341.6 367,341.2 367.1,341.1 367.4,340.7 367.7,340.5 367.8,340.3 
		367.9,340.1 368,340 368.1,339.8 368.2,339.7 368.2,339.5 368.2,338.8 368.3,338.6 368.4,338.3 368.5,338.1 368.6,337.9 
		368.6,337.5 368.7,337.3 368.8,337.1 371.3,334.3 371.8,334 372.1,333.9 372.4,333.9 373,334 373.2,334.1 373.4,334.3 373.5,334.5 
		373.6,334.9 373.7,335.1 373.8,335.2 374.2,335.3 379.1,335 379.9,334.7 381,334.1 382.1,333.3 382.6,332.7 383.6,331.4 384,331 
		384.3,330.9 384.7,330.8 385.6,330.7 386,330.6 386.3,330.5 386.5,330.4 386.6,330.2 386.9,329.4 386.9,329.2 386.8,328.5 
		386.8,328.3 386.9,328.1 387.2,327.6 387.3,327.4 387.3,327.2 387.1,327.1 385.2,326.6 384.8,326.5 384.4,326.3 383.4,325.1 
		381.8,323.8 381.7,323.8 381.5,323.7 381.3,323.8 379.8,324.1 379.6,324.1 379.4,324 379.2,323.9 379.1,323.8 378.2,322.7 
		378,322.6 377.8,322.5 377.6,322.5 377.1,322.5 376.6,322.5 376.1,322.5 375.9,322.4 375.8,322.3 375.6,322.2 375.6,322.1 
		375.6,321.9 375.7,321.7 375.8,321.3 375.9,321.1 375.9,320.4 375.9,320.2 376,320 376.2,319.7 376.3,319.5 376.5,319.1 
		376.5,318.9 376.6,318.7 376.7,318.5 376.7,318.2 376.8,318 377.1,317.9 377.6,317.9 379.5,318.2 380.1,318.1 380.4,318 
		380.7,317.7 381,317.7 382,317.7 382.3,317.6 382.6,317.6 382.9,317.7 383.3,317.9 383.6,318 384,318.1 385.5,318 385.7,318 
		386.1,317.8 387,317.6 387.3,317.6 387.5,317.6 387.9,317.8 388,318 388.1,318.3 388.2,320.1 388.3,320.5 388.4,320.7 388.5,320.9 
		388.9,321.1 389.5,321.3 390.4,321.8 390.9,322.2 391.2,322.6 391.4,322.7 391.6,322.8 391.8,322.9 392.2,322.8 392.5,322.7 
		393.3,322.4 393.6,322.4 393.8,322.4 394.1,322.4 394.7,322.7 395,322.8 395.4,322.8 396.1,322.7 396.4,322.6 396.6,322.4 
		396.9,322.1 397.5,321.1 397.9,320.7 398.3,320.5 398.5,320.4 398.8,320.4 399.7,320.4 400.1,320.3 400.6,320.1 400.7,319.9 
		400.7,319.6 400.7,319.4 400.5,318.5 400.2,317.7 400.1,317.5 400.1,317.3 400.2,317.2 400.2,317.1 400.3,316.9 401.5,316.1 
		403.2,315.1 403.5,314.8 404,314.2 405.3,312.1 405.6,311.8 405.7,311.7 406.1,311.5 406.3,311.4 406.5,311.3 406.7,311.3 
		407,311.3 407.3,311.5 407.9,311.8 408.2,312.1 408.4,312.3 408.6,312.6 408.9,313.5 408.9,313.9 409,315.9 409.1,316.3 
		409.3,316.6 409.4,316.8 409.6,317.1 409.8,317.4 410,317.6 410.3,317.7 410.8,317.8 411.7,317.9 	"/>
</g>
<g id="copyright">
</g>
</svg>
